<svg version="1.2" xmlns="http://www.w3.org/2000/svg" viewBox="0 0 816 648" width="816" height="648"><style>.a{fill:#fff}</style><path fill-rule="evenodd" class="a" d="m80.2 164.4c-10.7-10.7-16-24.7-16-38.6 0-13.9 5.3-27.9 16-38.5 10.7-10.6 24.6-15.9 38.5-15.9 13.9 0 27.9 5.2 38.5 15.8 71.5-51.6 159.5-82.1 254.5-82.1 95 0 182.9 30.5 254.5 82.1 10.6-10.5 24.5-15.8 38.5-15.8 13.9 0 27.9 5.3 38.5 15.9 10.6 10.7 15.9 24.7 15.9 38.6 0 13.9-5.3 27.9-15.9 38.5l12.7 9.4c184.2 184.2-129.3 267.1-129.3 267.1h-429.8c-9.1 0-326.4-70.1-129.3-267.1zm77-77.2q-6.4 4.6-12.7 9.5l12.8-9.4q-0.1-0.1-0.1-0.1zm509 0q0 0.1-0.1 0.1l12.7 9.4q-6.2-4.9-12.6-9.5zm-434.3 145.9c-30.1 0-54.5 24.4-54.5 54.5 0 30 24.4 54.4 54.5 54.4 30.1 0 54.4-24.4 54.4-54.4 0-30.1-24.3-54.5-54.4-54.5zm359.6 0c-30.1 0-54.5 24.4-54.5 54.5 0 30 24.4 54.4 54.5 54.4 30 0 54.5-24.4 54.5-54.4 0-30.1-24.5-54.5-54.5-54.5z"/><path class="a" d="m699 635.5c-36.6 0-66.3-29.7-66.3-66.3 0-36.6 29.7-66.3 66.3-66.3 36.6 0 66.2 29.7 66.2 66.3 0.1 36.6-29.6 66.3-66.2 66.3z"/><path class="a" d="m154.5 641.5c-36.6 0-66.3-29.7-66.3-66.3 0-36.6 29.7-66.2 66.3-66.2 36.6 0 66.3 29.6 66.3 66.2 0 36.6-29.7 66.3-66.3 66.3z"/><path class="a" d="m213.4 454.6h397.9c0 0-192.9 66.3-397.9 0z"/><path fill-rule="evenodd" class="a" d="m1105.1 426l-55-143.5-17.5 32.9v110.6h-56.5v-360h56.5v155.8h1.1l73-155.8h56.6l-78.7 160.4 78.7 199.6zm143.7 0v-119.4l-71.5-240.6h59.2l42.7 164h1l42.7-164h54l-71.5 240.6v119.4zm157.6 0v-360h56.6v308.5h93.1v51.5zm237.9-308.6v100.3h77.7v51.4h-77.7v105.4h97.7v51.5h-154.3v-360h154.3v51.4zm402.2 308.6h-57.6c-3.1-9.3-5.1-14.9-5.1-44.3v-56.5c0-33.5-11.3-45.8-37-45.8h-19.6v146.6h-56.6v-360h85.4c58.6 0 83.8 27.2 83.8 82.8v28.2c0 37.1-11.8 60.7-37 72.6v1c28.3 11.8 37.6 38.6 37.6 76.1v55.6c0 17.4 0.5 30.3 6.1 43.7zm-92-308.6h-27.3v110.6h22.1c21.1 0 34-9.3 34-38.1v-35.5c0-25.7-8.8-37-28.8-37zm129.8 308.6v-360h56.6v360zm189.6-149.2v-51.4h79.2v114.2c0 57.6-28.8 90.5-84.4 90.5-55.5 0-84.3-32.9-84.3-90.5v-187.2c0-57.6 28.8-90.6 84.3-90.6 55.6 0 84.4 33 84.4 90.6v34.9h-53.5v-38.5c0-25.8-11.3-35.5-29.3-35.5-18 0-29.4 9.7-29.4 35.5v194.4c0 25.7 11.4 34.9 29.4 34.9 18 0 29.3-9.2 29.3-34.9v-66.4zm122.6 149.2v-360h89.5c56.6 0 84.4 31.3 84.4 88.9v182.1c0 57.6-27.8 89-84.4 89zm88.5-308.6h-31.9v257.1h31.9c18 0 28.8-9.2 28.8-34.9v-187.2c0-25.8-10.8-35-28.8-35zm123.7 222.2v-187.2c0-57.6 30.3-90.6 85.9-90.6 55.5 0 85.9 33 85.9 90.6v187.2c0 57.6-30.4 90.5-85.9 90.5-55.6 0-85.9-32.9-85.9-90.5zm56.6-190.8v194.4c0 25.7 11.3 35.5 29.3 35.5 18 0 29.3-9.8 29.3-35.5v-194.4c0-25.8-11.3-35.5-29.3-35.5-18 0-29.3 9.7-29.3 35.5zm279.5 277.2l-69.4-260.8h-1v260.8h-51v-360h71l57.1 215.4h1v-215.4h50.4v360z"/><path fill-rule="evenodd" class="a" d="m992.9 527.7c-1.3 0.7-2.7 1.9-2.7 5.4 0 2.8 0.9 4.3 3.2 5.4 2.3 1.1 4.9 1.2 5 1.2l51.5 0.2c9 0 22.3 5.6 22.3 20.8 0 15.2-12.4 20.7-20.7 20.7h-75.4v-14.1h75.3c0.6-0.1 2.5-0.3 4-1.1 1.3-0.8 2.7-2 2.7-5.5 0-2.8-0.9-4.3-3.2-5.4-2.3-1.1-4.9-1.2-5.1-1.2l-51.4-0.2c-9 0-22.3-5.5-22.3-20.8 0-15.2 12.4-20.7 20.7-20.7h75.4v14.2h-75.3c-0.6 0-2.5 0.2-4 1.1zm189.6-8.2c5.6 5.5 5.5 13.4 5.4 25.4q0 1.4 0 2.8c0 7.1 0 12.3-0.8 16.6-0.6 3.8-2.1 9.1-7.5 12.7-6.8 4.5-17 4.6-39.4 4.9q-5.2 0-9.6 0c-17.8 0-26.7-0.9-32.4-6.6-5.9-5.8-5.8-14.5-5.8-27.6 0.1-14.7 0.1-23.5 7.5-29 6.4-4.7 15.7-4.9 36.1-5.1l4.1-0.1c25.4-0.4 35.9-0.5 42.4 6zm-8.6 25.4c0-7 0-14.1-1.3-15.4-1.7-1.7-9.1-2.1-19.1-2.1-4 0-8.5 0.1-13.2 0.2h-4.1c-14.6 0.2-25.2 0.4-27.9 2.4-1.8 1.3-1.8 8.9-1.8 17.7-0.1 8.2-0.1 15.9 1.7 17.7 2.7 2.7 17.5 2.5 31.9 2.4 16.5-0.2 28.4-0.3 31.7-2.5 2-1.3 2-8.2 2-17.6q0.1-1.5 0.1-2.8zm130.4-17.5h-82v13.2h54.7v14.2h-54.7v27.3h-14.2v-68.8h96.2c0 0 0 14.1 0 14.1zm20.2-15h96.1v14.2h-41v54.8h-14.1v-54.8h-41c0 0 0-14.2 0-14.2zm244.5 1.6h17.5l-54.4 72.6-21.2-28.4-21.2 28.4-54.5-72.6h17.6l36.9 49.2 12.4-16.7-24.4-32.5h17.6l15.6 20.9 15.6-20.9h17.6l-24.4 32.5 12.4 16.7zm51.3-6.2l55.4 73.5h-17.8l-15.5-20.5h-44.2l-15.2 20.5h-17.6zm-11.5 38.9h22.9l-11.4-15.3zm167.8 20.5l7-0.1 0.2 14.1-7 0.1q-1.6 0-3.6 0c-9.8 0-25.4-1-35.3-10.7-4.4-4.3-7.1-9.8-8.2-16.4h-25.4l-0.1 27.1-14-0.1 0.2-61.1v-7h7 66.1c8.9 0 22.1 5.5 22.1 20.6 0 15-12.3 20.5-20.5 20.5h-21q1.1 3.8 3.7 6.4c7 7 21.7 6.7 28.8 6.6zm-11.6-27c0.6 0 2.5-0.3 4-1.1 1.3-0.7 2.6-1.9 2.6-5.4 0-2.9-1-4.4-3.4-5.5-2.2-1-4.7-1.1-4.7-1.1h-59.1c0 0 0 13.1 0 13.1zm55.1-12.8v13.2l54.7 0.2-0.1 14.1-54.6-0.2v13.2h82v14.1h-96.2v-68.8h96.2c0 0 0 14.2 0 14.2zm243.1-0.8c5.8 5.9 8.9 13.4 8.8 21.1-0.1 9.6-4.8 18.4-13 24.7-8.6 6.6-20.8 10.1-35.1 10.1-27.3 0-41.1-0.5-41.2-0.5l-6.9-0.2v-68.6h48.1c21.6 0 33.3 7.3 39.3 13.4zm-39.3 41.7c23.2 0 33.8-10.4 33.9-20.8 0.1-4-1.5-7.7-4.7-10.9-5.8-6-16.2-9.2-29.2-9.2h-33.9v40.6c6.6 0.1 17.9 0.3 33.9 0.3zm164.6-40.9q0 0 0 0zm-82 0v13.2l54.6 0.2v14.1l-54.6-0.2v13.2h82v14.1h-96.2v-68.8h96.2c0 0 0 14.2 0 14.2zm187.7-13.8h17.6l-54.4 72.5-54.4-72.5h17.5l36.9 49.1zm128.1 13.9q0 0 0 0zm-82 0v13.1l54.6 0.2v14.2l-54.6-0.2v13.2h82v14.1h-96.2v-68.8h96.2c0 0 0 14.1 0 14.2zm116.3 40.2h82v14.2h-96.2v-68.9h14.2c0 0 0 54.7 0 54.7zm192.4-48.1c5.5 5.5 5.5 13.4 5.4 25.4q0 1.4 0 2.8c0 7.2 0 12.3-0.8 16.7-0.6 3.7-2.1 9-7.5 12.6-6.8 4.6-17 4.7-39.4 4.9q-5.2 0-9.7 0c-17.7 0-26.6-0.9-32.3-6.5-5.9-5.9-5.9-14.6-5.8-27.7 0-14.7 0.1-23.5 7.5-29 6.4-4.7 15.7-4.8 36.1-5.1l4-0.1c25.4-0.3 36-0.5 42.5 6zm-8.7 25.4c0.1-6.9 0.1-14.1-1.2-15.4-1.7-1.7-9.1-2-19.1-2-4.1 0-8.6 0-13.3 0.1h-4c-14.6 0.2-25.2 0.4-27.9 2.4-1.8 1.3-1.8 8.9-1.8 17.7-0.1 8.2-0.1 15.9 1.6 17.7 2.8 2.7 17.6 2.6 32 2.4 16.4-0.1 28.4-0.3 31.7-2.5 2-1.3 2-8.2 2-17.6q0-1.5 0-2.8zm108.4-32.5c8.9 0 22.3 5.5 22.3 20.8 0 15.2-12.4 20.7-20.7 20.7h-61.4l-0.1 27.4-14.2-0.1 0.2-61.7v-7.1h0.1 7c0 0 66.8 0 66.8 0zm5.5 26.3c1.3-0.8 2.6-2 2.6-5.5 0-2.9-0.9-4.4-3.4-5.5-2.2-1-4.7-1.1-4.7-1.1h-59.7v13.1h61.2c0.6 0 2.5-0.2 4-1zm51.2-11.3v13.1l54.6 0.2v14.2l-54.6-0.2v13.2h82v14.1h-96.2v-68.8h96.2c0 0 0 14.1 0 14.2zm188.6 39.8l7-0.1 0.2 14-7 0.1q-1.7 0.1-3.7 0.1c-9.7 0-25.3-1-35.2-10.7-4.4-4.3-7.2-9.8-8.3-16.4h-25.4l-0.1 27.1-14-0.1 0.2-61.1v-7h0.1 7 66.1c8.8 0 22.1 5.5 22.1 20.5 0 15.1-12.3 20.6-20.6 20.6h-21q1.1 3.8 3.7 6.4c7.1 6.9 21.8 6.7 28.9 6.6zm-11.6-27.1c0.6 0 2.4-0.2 3.9-1 1.3-0.8 2.6-2 2.6-5.5 0-2.8-0.9-4.3-3.4-5.4-2.2-1-4.6-1.1-4.6-1.1h-59.1c0 0 0 13 0 13z"/></svg>