<svg xmlns="http://www.w3.org/2000/svg" xmlns:xlink="http://www.w3.org/1999/xlink" width="500" zoomAndPan="magnify" viewBox="0 0 375 374.999991" height="500" preserveAspectRatio="xMidYMid meet" version="1.0"><defs><g/><clipPath id="9a51c3f34e"><path d="M 128 142 L 257.460938 142 L 257.460938 247.152344 L 128 247.152344 Z M 128 142 " clip-rule="nonzero"/></clipPath><clipPath id="949e322ccd"><path d="M 117.210938 103.902344 L 247 103.902344 L 247 209 L 117.210938 209 Z M 117.210938 103.902344 " clip-rule="nonzero"/></clipPath></defs><g clip-path="url(#9a51c3f34e)"><path fill="#fbbe06" d="M 232.40625 142.324219 L 249.5 142.324219 C 254.8125 152.214844 257.824219 163.527344 257.824219 175.539062 C 257.824219 214.375 226.335938 245.863281 187.5 245.863281 C 175.144531 245.863281 163.535156 242.675781 153.449219 237.082031 L 147.695312 247.042969 L 128.652344 214.054688 L 166.742188 214.054688 L 160.6875 224.546875 C 168.644531 228.90625 177.78125 231.390625 187.5 231.390625 C 218.34375 231.390625 243.351562 206.382812 243.351562 175.539062 C 243.351562 163.097656 239.28125 151.605469 232.40625 142.324219 " fill-opacity="1" fill-rule="nonzero"/></g><g clip-path="url(#949e322ccd)"><path fill="#126fbc" d="M 227.226562 103.921875 L 246.273438 136.910156 L 208.183594 136.910156 L 214.207031 126.472656 C 206.269531 122.144531 197.171875 119.6875 187.496094 119.6875 C 156.652344 119.6875 131.644531 144.691406 131.644531 175.539062 C 131.644531 187.929688 135.679688 199.378906 142.507812 208.644531 L 125.4375 208.644531 C 120.164062 198.777344 117.175781 187.507812 117.175781 175.539062 C 117.175781 136.699219 148.660156 105.214844 187.496094 105.214844 C 199.808594 105.214844 211.378906 108.378906 221.445312 113.9375 Z M 227.226562 103.921875 " fill-opacity="1" fill-rule="nonzero"/></g><path fill="#d3d3d3" d="M 164.023438 178.378906 C 164.023438 166.6875 154.542969 157.207031 142.851562 157.207031 C 141.601562 157.207031 140.375 157.3125 139.183594 157.523438 C 137.085938 163.140625 135.9375 169.21875 135.9375 175.566406 C 135.9375 184.214844 138.070312 192.367188 141.832031 199.527344 C 142.167969 199.542969 142.507812 199.550781 142.851562 199.550781 C 154.542969 199.550781 164.023438 190.074219 164.023438 178.378906 Z M 220.886719 176.804688 C 200.738281 176.804688 184.410156 193.136719 184.410156 213.285156 C 184.410156 218.183594 185.375 222.855469 187.125 227.121094 C 187.25 227.121094 187.371094 227.121094 187.496094 227.121094 C 213.976562 227.121094 235.796875 207.15625 238.71875 181.457031 C 233.445312 178.496094 227.363281 176.804688 220.886719 176.804688 Z M 219.425781 154.890625 C 223.332031 154.890625 226.5 158.058594 226.5 161.964844 C 226.5 165.871094 223.332031 169.035156 219.425781 169.035156 C 215.519531 169.035156 212.355469 165.871094 212.355469 161.964844 C 212.351562 158.058594 215.519531 154.890625 219.425781 154.890625 Z M 186.105469 131.785156 C 197.128906 131.785156 206.066406 140.722656 206.066406 151.746094 C 206.066406 162.773438 197.128906 171.710938 186.105469 171.710938 C 175.078125 171.710938 166.140625 162.773438 166.140625 151.746094 C 166.140625 140.722656 175.078125 131.785156 186.105469 131.785156 " fill-opacity="1" fill-rule="nonzero"/><g fill="#000000" fill-opacity="1"><g transform="translate(53.30192, 192.724802)"><g><path d="M 4.554688 0 L 13.175781 0 L 13.175781 -11.820312 L 18.871094 -11.820312 L 25.648438 0 L 35.625 0 L 27.761719 -13.175781 C 32.316406 -15.183594 34.972656 -19.304688 34.972656 -24.886719 C 34.972656 -32.96875 29.445312 -37.957031 20.769531 -37.957031 L 4.554688 -37.957031 Z M 13.066406 -19.085938 L 13.066406 -30.582031 L 19.628906 -30.582031 C 23.859375 -30.582031 26.246094 -28.523438 26.246094 -24.835938 C 26.246094 -21.148438 23.859375 -19.085938 19.628906 -19.085938 Z M 13.066406 -19.085938 "/></g></g></g><g fill="#000000" fill-opacity="1"><g transform="translate(89.843845, 192.724802)"><g><path d="M 22.558594 0.757812 C 34.433594 0.757812 42.835938 -7.375 42.835938 -18.976562 C 42.835938 -30.582031 34.433594 -38.714844 22.558594 -38.714844 C 10.683594 -38.714844 2.332031 -30.582031 2.332031 -18.976562 C 2.332031 -7.375 10.683594 0.757812 22.558594 0.757812 Z M 11.117188 -18.976562 C 11.117188 -25.808594 15.832031 -30.527344 22.558594 -30.527344 C 29.335938 -30.527344 34 -25.808594 34 -18.976562 C 34 -12.144531 29.335938 -7.429688 22.558594 -7.429688 C 15.832031 -7.429688 11.117188 -12.144531 11.117188 -18.976562 Z M 11.117188 -18.976562 "/></g></g></g><g fill="#000000" fill-opacity="1"><g transform="translate(133.379748, 192.724802)"><g><path d="M 13.664062 0 L 22.285156 0 L 22.285156 -29.878906 L 34.324219 -29.878906 L 34.324219 -37.957031 L 1.625 -37.957031 L 1.625 -29.878906 L 13.664062 -29.878906 Z M 13.664062 0 "/></g></g></g><g fill="#000000" fill-opacity="1"><g transform="translate(167.698787, 192.724802)"><g><path d="M 0.488281 0 L 9.707031 0 L 12.253906 -6.5625 L 27.328125 -6.5625 L 29.878906 0 L 39.09375 0 L 24.019531 -37.957031 L 15.5625 -37.957031 Z M 14.476562 -13.339844 L 19.792969 -27.21875 L 25.160156 -13.339844 Z M 14.476562 -13.339844 "/></g></g></g><g fill="#000000" fill-opacity="1"><g transform="translate(205.65036, 192.724802)"><g><path d="M 13.664062 0 L 22.285156 0 L 22.285156 -29.878906 L 34.324219 -29.878906 L 34.324219 -37.957031 L 1.625 -37.957031 L 1.625 -29.878906 L 13.664062 -29.878906 Z M 13.664062 0 "/></g></g></g><g fill="#000000" fill-opacity="1"><g transform="translate(239.969391, 192.724802)"><g><path d="M 22.558594 0.757812 C 34.433594 0.757812 42.835938 -7.375 42.835938 -18.976562 C 42.835938 -30.582031 34.433594 -38.714844 22.558594 -38.714844 C 10.683594 -38.714844 2.332031 -30.582031 2.332031 -18.976562 C 2.332031 -7.375 10.683594 0.757812 22.558594 0.757812 Z M 11.117188 -18.976562 C 11.117188 -25.808594 15.832031 -30.527344 22.558594 -30.527344 C 29.335938 -30.527344 34 -25.808594 34 -18.976562 C 34 -12.144531 29.335938 -7.429688 22.558594 -7.429688 C 15.832031 -7.429688 11.117188 -12.144531 11.117188 -18.976562 Z M 11.117188 -18.976562 "/></g></g></g><g fill="#000000" fill-opacity="1"><g transform="translate(283.505301, 192.724802)"><g><path d="M 4.554688 0 L 13.175781 0 L 13.175781 -11.820312 L 18.871094 -11.820312 L 25.648438 0 L 35.625 0 L 27.761719 -13.175781 C 32.316406 -15.183594 34.972656 -19.304688 34.972656 -24.886719 C 34.972656 -32.96875 29.445312 -37.957031 20.769531 -37.957031 L 4.554688 -37.957031 Z M 13.066406 -19.085938 L 13.066406 -30.582031 L 19.628906 -30.582031 C 23.859375 -30.582031 26.246094 -28.523438 26.246094 -24.835938 C 26.246094 -21.148438 23.859375 -19.085938 19.628906 -19.085938 Z M 13.066406 -19.085938 "/></g></g></g></svg>